<?xml version="1.0" encoding="UTF-8"?>
<svg width="225px" height="40px" viewBox="0 0 225 40" version="1.1" xmlns="http://www.w3.org/2000/svg" xmlns:xlink="http://www.w3.org/1999/xlink">
    <title>ecarsense_ADA_logo</title>
    <g id="Symbols" stroke="none" stroke-width="1" fill="none" fill-rule="evenodd">
        <g id="Navigation/DK-Header-authenticated" transform="translate(-27.000000, -21.000000)" fill-rule="nonzero">
            <g id="ecarsense_ADA_logo" transform="translate(27.000000, 21.000000)">
                <path d="M2.84975767,21 L6.15024233,21 C7.72246207,21.0042039 8.9960045,22.3441692 9,23.9983897 L9,37.0016103 C9,38.6575752 7.72412003,40 6.15024233,40 L2.84975767,40 C1.27587997,40 0,38.6575752 0,37.0016103 L0,23.9983897 C0.00399549517,22.3441692 1.27753793,21.0042039 2.84975767,21" id="Path" fill="#EE432E"></path>
                <path d="M17.8570275,21 L21.1502423,21 C22.7224621,21.0042039 23.9960045,22.3441685 24,23.9983882 L24,37.0016021 C24,38.6575661 22.72412,40 21.1502423,40 L17.8570275,40 C17.0999659,40.0020222 16.3732499,39.6870188 15.8372433,39.1244916 C15.3012367,38.5619643 15,37.7981511 15,37.0016021 L15,23.9983882 C15.0040078,22.3411876 16.2819694,21 17.8570275,21" id="Path" fill="#3B4245"></path>
                <path d="M17.8570275,0 L21.1502423,0 C22.7224621,0.00420388214 23.9960045,1.34416854 24,2.99838815 L24,16.0016021 C24,17.6575661 22.72412,19 21.1502423,19 L17.8570275,19 C17.0999659,19.0020222 16.3732499,18.6870188 15.8372433,18.1244916 C15.3012367,17.5619643 15,16.7981511 15,16.0016021 L15,2.99838815 C15.0040078,1.34118759 16.2819694,0 17.8570275,0" id="Path" fill="#E4087E"></path>
                <path d="M33.8520649,21 L37.1479351,21 C38.7230819,21 40,22.3424241 40,23.9983881 L40,37.001602 C40.0019292,37.797447 39.7020682,38.5612835 39.1667833,39.1240328 C38.6314983,39.686782 37.9049399,40.0020282 37.1479351,40 L33.8520649,40 C33.0950601,40.0020282 32.3685017,39.686782 31.8332167,39.1240328 C31.2979318,38.5612835 30.9980708,37.797447 31,37.001602 L31,23.9983881 C31,22.3424241 32.2769181,21 33.8520649,21" id="Path" fill="#0580AD"></path>
                <path d="M2.84975767,0 L6.15024233,0 C7.72412003,0 9,1.34242479 9,2.99838969 L9,16.0016103 C8.9960045,17.6558308 7.72246207,18.9957961 6.15024233,19 L2.84975767,19 C1.27753793,18.9957961 0.00399549517,17.6558308 0,16.0016103 L0,2.99838969 C0,1.34242479 1.27587997,0 2.84975767,0" id="Path" fill="#FFD10C"></path>
                <path d="M33.8520649,0 L37.1479351,0 C37.9049399,-0.00202820491 38.6314983,0.313217994 39.1667833,0.875967244 C39.7020682,1.43871649 40.0019292,2.20255295 40,2.99839796 L40,16.0016119 C40,17.6575759 38.7230819,19 37.1479351,19 L33.8520649,19 C32.2769181,19 31,17.6575759 31,16.0016119 L31,2.99839796 C30.9980708,2.20255295 31.2979318,1.43871649 31.8332167,0.875967244 C32.3685017,0.313217994 33.0950601,-0.00202820491 33.8520649,0" id="Path" fill="#C9D632"></path>
                <path d="M49.0074699,19.9811131 C48.9001467,17.2707833 49.9534232,14.6441885 51.9005294,12.7665829 C53.8916295,10.8951972 56.5442847,9.90183746 59.267904,10.0076667 C61.8585832,9.90811961 64.3745848,10.8917099 66.2178576,12.7246391 C68.0611303,14.5575682 69.0670555,17.0761413 68.9965257,19.6816958 C68.9965257,20.3233043 68.9965257,20.9292678 68.9256174,21.4924574 L54.6021364,21.4924574 C54.7155898,23.7594738 56.6726594,25.2351731 59.6437181,25.2351731 C61.3663026,25.2587001 63.0273237,24.591743 64.2598498,23.3816377 L67.5287234,26.5183899 C65.4181545,28.7785438 62.4574312,30.0390914 59.3742665,29.9902044 C56.6202869,30.1087422 53.9280916,29.1477302 51.8650752,27.309707 C49.9334633,25.4404044 48.8994123,22.8231751 49.0287424,20.1308217 L49.0074699,19.9811131 Z M63.3593141,17.8424184 C63.3593141,16.0673018 61.5227886,14.6700212 59.267904,14.6700212 C56.8215669,14.6700212 54.8290431,16.0958177 54.6801356,17.8424184 L63.3593141,17.8424184 Z" id="Shape" fill="#E4087E"></path>
                <path d="M92,13.4951544 L88.1329032,16.9880454 C86.9309722,15.7364377 85.1960721,15.0232045 83.3763741,15.0325932 C80.5923109,15.2694731 78.4631342,17.4094774 78.4631342,19.9708185 C78.4631342,22.5321596 80.5923109,24.6721638 83.3763741,24.9090437 C85.1950616,24.9211574 86.9301667,24.2104244 88.1329032,22.9606765 L92,26.4535675 C89.8435502,28.7422707 86.6918697,30.039271 83.3918424,29.9960533 C80.3846639,30.0718685 77.4672621,29.0527989 75.2786733,27.1620647 C73.1819964,25.285101 72,22.7130144 72,20.0274982 C72,17.3419821 73.1819964,14.7698955 75.2786733,12.8929318 C77.4591851,10.9842052 80.3765133,9.94478043 83.3918424,10.0022634 C86.6837843,9.94369287 89.8353036,11.2224698 92,13.4951544 L92,13.4951544 Z" id="Path" fill="#3B4245"></path>
                <path d="M101.733432,17.7876704 C104.583211,17.5257248 105.717231,17.2283811 105.717231,16.0602453 C105.717231,15.0124628 104.818851,14.4885716 103.05891,14.4885716 C101.033593,14.4747875 99.1109363,15.3443465 97.8306333,16.8531617 L94.3991163,14.0213172 C96.3841666,11.3885178 99.6055023,9.88250149 102.985272,10.0071776 C108.250368,10.0071776 111.409426,12.3717678 111.409426,16.3788278 L111.409426,23.5079964 C111.409426,24.8177245 111.843888,24.9734759 112.88218,24.9734759 L113,24.9734759 L113,29.398233 C112.261603,29.7030223 111.461093,29.843393 110.658321,29.8088505 C109.664841,29.8477738 108.687533,29.5578988 107.889543,28.9876156 C107.488909,28.6517407 107.180381,28.2262585 106.991163,27.7486836 C105.702504,29.2495612 103.478645,30 100.36377,30 C95.9896907,30 93,27.7062059 93,24.2230371 C93.0294551,20.3363305 95.6877761,18.3540393 101.733432,17.7876704 Z M101.306333,25.4053322 C104.07511,25.4053322 105.724595,24.279674 105.724595,22.0637557 L105.724595,20.6478334 C105.405055,20.8863823 105.027343,21.0423603 104.627393,21.1009285 L103.927835,21.2142023 C103.500736,21.2496004 102.403535,21.3982722 101.895434,21.511546 C99.8703976,21.8088897 98.699511,22.3398605 98.699511,23.6354294 C98.6921944,24.8389633 99.5463918,25.4053322 101.306333,25.4053322 Z" id="Shape" fill="#3B4245"></path>
                <path d="M116,30 L116,10.4250641 L121.80226,10.4250641 L121.80226,13.1073653 C122.698305,11.1212898 124.79887,10 127.479661,10 C127.988103,10.0082273 128.495681,10.0449285 129,10.1099304 L129,15.5478197 C128.358551,15.4242085 127.706967,15.3604182 127.053672,15.3572737 C123.748588,15.3572737 121.80226,17.2187615 121.80226,20.4433859 L121.80226,29.9706852 L116,30 Z" id="Path" fill="#3B4245"></path>
                <path d="M132.521389,24.5412427 C133.042275,26.1597039 134.838953,27.3806483 137.601912,27.3806483 C140.923503,27.3806483 142.040765,25.9609455 142.040765,24.4844545 C142.094209,23.6389239 141.669572,22.8295453 140.923503,22.3549003 C139.689042,21.6233137 138.375747,21.0165643 137.005536,20.5447792 C133.32159,19.188963 131.524912,17.7621617 131.524912,15.0150367 C131.524912,12.118843 134.038752,10.0105843 137.601912,10.0105843 C140.079711,9.86853163 142.397576,11.1666734 143.444892,13.2829993 L141.044288,14.4684511 C140.405845,13.2626428 139.070603,12.5249025 137.639658,12.5873449 C135.75994,12.5873449 134.484147,13.4888562 134.484147,15.0292338 C134.484147,16.5696113 135.842979,17.3646449 138.885254,18.4507176 C143.044791,19.9556025 145,21.6166548 145,24.5128486 C145,27.5226186 142.40312,30 137.601912,30 C133.759436,30 130.80775,28.3460462 130,25.4498525 L132.521389,24.5412427 Z" id="Path" fill="#3B4245"></path>
                <path d="M147.011014,20.1126117 C146.879109,17.4133511 147.936373,14.7777614 149.94834,12.7903293 C151.894208,10.9426628 154.608749,9.93060436 157.420214,10.0046013 C160.056436,9.92295105 162.591559,10.9315118 164.31553,12.7477991 C166.113609,14.586016 167.072307,16.9795011 166.995743,19.4392169 C166.995743,19.8503422 166.995743,20.2614674 166.956787,20.6371508 L150.073002,20.6371508 C150.236619,24.8051103 153.189529,27.4774244 157.505918,27.4774244 C160.349749,27.4774244 162.040465,26.6480855 163.90259,24.8476405 L165.928333,26.6480855 C163.805968,28.8454953 160.720101,30.0713212 157.505918,29.9937944 C154.67599,30.0872679 151.927616,29.1214338 149.901593,27.3214803 C147.961554,25.5564771 147.011014,23.1889627 147.011014,20.2331139 L147.011014,20.1126117 Z M163.738973,18.1987528 C163.759394,16.7024153 163.082912,15.2680854 161.876848,14.2505327 C160.694206,13.1794503 159.088874,12.5845283 157.420214,12.5989434 C155.612596,12.5735073 153.859552,13.1624252 152.503893,14.2505327 C151.202358,15.236517 150.397889,16.6619082 150.275576,18.1987528 L163.738973,18.1987528 Z" id="Shape" fill="#3B4245"></path>
                <path d="M170,29.9779412 L170,10.3382353 L172.972346,10.3382353 L172.972346,13.625 C174.056646,11.4191176 176.429973,10 179.485727,10 C184.103479,10 187,12.9411765 187,17.4044118 L187,29.9558824 L184.027654,29.9558824 L184.027654,18.0367647 C184.027654,14.7647059 181.980375,12.6985294 178.719893,12.6985294 C177.179511,12.622489 175.677514,13.1800821 174.583286,14.2341812 C173.489058,15.2882802 172.904128,16.7410792 172.972346,18.2352941 L172.972346,30 L170,29.9779412 Z" id="Path" fill="#3B4245"></path>
                <path d="M191.521389,24.5412427 C192.042275,26.1597039 193.838953,27.3806483 196.601912,27.3806483 C199.923503,27.3806483 201.040765,25.9609455 201.040765,24.4844545 C201.094209,23.6389239 200.669572,22.8295453 199.923503,22.3549003 C198.68817,21.624782 197.375043,21.0181106 196.005536,20.5447792 C192.32159,19.188963 190.524912,17.7621617 190.524912,15.0150367 C190.524912,12.118843 193.038752,10.0105843 196.601912,10.0105843 C199.079711,9.86853163 201.397576,11.1666734 202.444892,13.2829993 L200.044288,14.4684511 C199.405845,13.2626428 198.070603,12.5249025 196.639658,12.5873449 C194.75994,12.5873449 193.484147,13.4888562 193.484147,15.0292338 C193.484147,16.5696113 194.842979,17.3646449 197.885254,18.4507176 C202.044791,19.9556025 204,21.6166548 204,24.5128486 C204,27.5226186 201.40312,30 196.601912,30 C192.759436,30 189.80775,28.3460462 189,25.4498525 L191.521389,24.5412427 Z" id="Path" fill="#3B4245"></path>
                <path d="M205.011014,20.1126835 C204.879109,17.4134038 205.936373,14.7777954 207.94834,12.7903491 C209.894208,10.9426695 212.608749,9.93060387 215.420214,10.0046013 C218.056436,9.9229505 220.591559,10.9315184 222.31553,12.7478186 C224.113609,14.5860486 225.072307,16.9795507 224.995743,19.4392839 C224.995743,19.8504121 224.995743,20.2615403 224.995743,20.6372263 L208.073002,20.6372263 C208.236619,24.8052153 211.189529,27.4775484 215.498127,27.4775484 C218.349749,27.4775484 220.040465,26.6482037 221.90259,24.8477458 L223.920541,26.6482037 C221.800147,28.8480824 218.712948,30.0744461 215.498127,29.9939364 C212.670714,30.0862865 209.925221,29.1204683 207.901593,27.3216033 C205.961554,25.5565875 205.011014,23.1890563 205.011014,20.2331866 L205.011014,20.1126835 Z M221.738973,18.198811 C221.759394,16.7024629 221.082912,15.2681228 219.876848,14.2505629 C218.694206,13.1794728 217.088874,12.5845466 215.420214,12.5989618 C213.612596,12.5735256 211.859552,13.1624477 210.503893,14.2505629 C209.202358,15.2365542 208.397889,16.6619555 208.275576,18.198811 L221.738973,18.198811 Z" id="Shape" fill="#3B4245"></path>
            </g>
        </g>
    </g>
</svg>